# xmcd CD database file
#
# Track frame offsets:
#	150
#	30767
#	51286
#	80416
#	103121
#	129087
#	163481
#	254615
#	290813
#
# Disc length: 4341 seconds
#
# Revision: 0
# Processed by: cddbd v1.5PL3 Copyright (c) Steve Scherf et al.
# Submitted via: CDex 1.51
#
DISCID=7b10f309
DTITLE=100 Miles of Jazz - 100 Miles of Jazz
DYEAR=1900
DGENRE=Jazz
TTITLE0=Wes Montgomery/Jimmy Smith/Night Train
TTITLE1=Lucky Thompson/ Soul Lullaby
TTITLE2=Lucky Thompson/ Fillet of Soul
TTITLE3=Dee Dee Bridgewater/ The Jody Grind
TTITLE4=Eric Dolphy/ Blues in 6/8
TTITLE5=Eric Dolphy/ Oleo
TTITLE6=Jimmy Smith/ The Sermon
TTITLE7=Jimmy Smith/ Fifth Track
TTITLE8=John Coltrane/ Naima
EXTD=
EXTT0=
EXTT1=
EXTT2=
EXTT3=
EXTT4=
EXTT5=
EXTT6=
EXTT7=
EXTT8=
PLAYORDER=
